<?xml version="1.0" encoding="UTF-8"?>
<!-- Generator: Adobe Illustrator 16.0.0, SVG Export Plug-In . SVG Version: 6.00 Build 0)  -->
<!DOCTYPE svg PUBLIC "-//W3C//DTD SVG 1.1//EN" "http://www.w3.org/Graphics/SVG/1.1/DTD/svg11.dtd">
<svg version="1.1" xmlns="http://www.w3.org/2000/svg" xmlns:xlink="http://www.w3.org/1999/xlink" x="0px" y="0px" width="138px" height="86px" viewBox="0 0 138 86" enable-background="new 0 0 138 86" xml:space="preserve">
<g id="Ebene_1">
	<polygon fill="#F4D606" points="0,0 0,86 138.129,86 138.129,0 0,0  "/>
</g>
<g id="Ebene_3">
	<path id="Dresden-Ocker" fill="#999100" d="M119.68,45.158c-0.883,0-1.705,0.639-1.705,1.67c0,1.035,0.729,1.795,1.705,1.795   c1.033,0,1.701-0.82,1.701-1.795C121.38,45.857,120.713,45.158,119.68,45.158 M103.352,48.99c0-2.191-0.032-2.494-1.157-2.648   l-0.638-0.088c-0.212-0.154-0.151-0.67,0.061-0.762c0.851,0.061,1.764,0.092,2.857,0.092c1.065,0,1.947-0.031,2.769-0.092   c0.212,0.092,0.272,0.607,0.062,0.762l-0.549,0.088c-1.094,0.184-1.155,0.457-1.155,2.648v4.652c0,0.879,0.062,1.307,0.455,1.824   c0.427,0.576,1.43,1.062,2.585,1.062c2.067,0,2.858-1.277,2.858-3.01V48.99c0-2.191-0.029-2.465-1.153-2.648l-0.581-0.088   c-0.21-0.154-0.15-0.67,0.063-0.762c0.82,0.061,1.733,0.092,2.828,0.092c1.064,0,1.946-0.031,2.858-0.092   c0.212,0.092,0.271,0.607,0.059,0.762l-0.668,0.088c-1.095,0.154-1.154,0.457-1.154,2.648v5.229c0,2.037-1.035,3.77-3.561,3.77   c-1.55,0-2.978-0.76-4.256-1.549c-0.212,0-0.334,0.15-0.334,0.332c0,0.273,0,0.73,0.062,1.43c-0.062,0.152-0.213,0.213-0.337,0.213   c-0.607-0.455-2.34-1.246-3.041-1.488c-0.151-0.092-0.151-0.426-0.027-0.547l0.271-0.184c0.823-0.545,0.823-0.697,0.823-1.887   L103.352,48.99L103.352,48.99z M92.312,54.279h2.159c2.252,0,2.919,0.121,3.163,0.305c0.089,0.061,0.183,0.184,0.183,0.578   c0,0.85-0.58,1.916-2.343,1.916c-1.793,0-3.346-1.643-3.376-2.646C92.098,54.371,92.098,54.279,92.312,54.279 M98.212,53.369   h-5.627c-0.79,0-0.822-0.062-0.822-0.822c0-3.07,1.795-5.688,5.051-5.688c1.003,0,1.854,0.305,2.795,1.49   c0.304,0.092,0.518-0.09,0.549-0.365c-1.004-2.066-3.193-2.826-4.774-2.826c-1.978,0-3.527,0.85-4.409,2.006   c-0.912,1.186-1.276,2.615-1.276,3.953c0,3.74,2.461,6.871,6.111,6.871c2.616,0,4.317-1.793,4.317-3.617   c0-0.424-0.061-0.67-0.122-0.791C99.912,53.398,99.488,53.369,98.212,53.369 M83.954,48.594c0-0.488-0.03-0.943-0.212-1.125   c-0.485-0.486-1.52-0.852-2.343-0.852c-2.98,0-4.53,2.613-4.53,5.383c0,2.645,1.428,5.045,4.198,5.045   c1.183,0,2.097-0.637,2.553-1.275c0.213-0.303,0.334-0.578,0.334-1.186V48.594L83.954,48.594z M86.205,63.373   c0,1.336,0.06,2.857,0.092,3.771c-0.062,0.119-0.182,0.18-0.305,0.18c-1.095-0.576-2.525-1.033-3.284-1.277   c-0.152-0.09-0.152-0.518,0-0.607l0.304-0.184c0.912-0.547,0.942-0.729,0.942-2.521v-4.592c0-0.244-0.03-0.428-0.182-0.428   c-0.334,0.123-1.004,0.275-2.036,0.275c-4.137,0-7.36-2.738-7.36-6.994c0-3.191,2.251-5.838,5.624-5.838   c1.46,0,2.495,0.486,3.834,1.398h0.12c0.062-0.121,0.062-0.486,0.062-0.941v-0.518c0-0.152,0.151-0.244,0.335-0.244   c0.852,0.336,2.737,0.791,4.014,0.973c0.273,0.152,0.243,0.912,0.03,0.975c-0.456-0.152-0.973-0.305-1.307-0.305   c-0.852,0-0.883,1.125-0.883,3.525V63.373L86.205,63.373z M68.536,57.988c1.278,0,2.402-0.301,2.676-0.547   c0.274-0.67,0.487-1.641,0.487-2.463c-0.122-0.211-0.578-0.275-0.73-0.09c-0.517,1.338-1.43,2.219-2.675,2.219   c-1.187,0-1.947-0.76-1.947-1.855c0-1.246,1.277-1.914,2.341-2.523c1.613-0.912,3.101-1.947,3.101-4.105   c0-2.311-2.129-3.465-4.378-3.465c-1.429,0-2.494,0.303-3.253,0.912c-0.244,0.578-0.425,2.068-0.366,3.07   c0.152,0.182,0.549,0.215,0.699,0.029c0.517-1.672,1.49-3.131,3.222-3.131c1.095,0,2.039,0.639,2.039,1.945   c0,1.398-1.216,2.16-2.341,2.797c-1.765,1.004-3.011,2.07-3.011,3.74C64.401,56.742,66.225,57.988,68.536,57.988 M53.445,54.279   c-0.213,0-0.213,0.092-0.213,0.152c0.032,1.004,1.582,2.646,3.377,2.646c1.763,0,2.34-1.066,2.34-1.916   c0-0.395-0.091-0.52-0.183-0.578c-0.244-0.184-0.913-0.305-3.163-0.305H53.445L53.445,54.279z M59.344,53.369   c1.278,0,1.704,0.029,1.794,0.211c0.062,0.121,0.122,0.365,0.122,0.791c0,1.824-1.702,3.617-4.319,3.617   c-3.647,0-6.11-3.131-6.11-6.871c0-1.338,0.365-2.768,1.277-3.953c0.882-1.156,2.434-2.006,4.41-2.006   c1.58,0,3.77,0.76,4.774,2.826c-0.032,0.275-0.244,0.457-0.548,0.365c-0.942-1.186-1.793-1.49-2.796-1.49   c-3.256,0-5.05,2.617-5.05,5.686c0,0.76,0.03,0.824,0.821,0.824H59.344L59.344,53.369z M42.655,48.988v5.32   c0,1.188,0,1.34-0.821,1.887l-0.273,0.184c-0.122,0.119-0.122,0.455,0.03,0.547c0.698,0.242,2.312,1.033,3.072,1.488   c0.152-0.029,0.242-0.09,0.242-0.213v-1.762c0-0.152,0.033-0.244,0.093-0.273c1.063,0.879,2.218,1.822,3.345,1.822   c0.759,0,1.368-0.486,1.368-1.217c0-1.002-0.82-1.398-1.307-1.398c-0.306,0-0.457,0.092-0.671,0.215   c-0.456,0.303-0.911,0.484-1.337,0.484c-0.487,0-0.853-0.271-1.094-0.607c-0.304-0.424-0.397-1.307-0.397-2.34v-4.137   c0-2.189,0.062-2.555,1.217-2.646l1.095-0.088c0.214-0.154,0.153-0.67-0.06-0.762c-1.429,0.061-2.312,0.092-3.374,0.092   c-1.096,0-2.008-0.031-2.799-0.092c-0.213,0.092-0.275,0.607-0.061,0.762l0.577,0.088C42.624,46.525,42.655,46.799,42.655,48.988    M23.015,62.064c0,1.369,0.061,2.129,0.305,2.311c0.243,0.184,1.217,0.426,3.01,0.426c7.966,0,9.578-5.656,9.578-9.002   c0-5.654-2.646-9.518-8.544-9.518c-1.917,0-3.07,0.307-3.739,1.248c-0.518,0.73-0.609,1.701-0.609,3.316V62.064z M20.522,50.145   c0-3.193-0.062-3.557-1.825-3.803l-0.7-0.088c-0.182-0.184-0.121-0.67,0.062-0.762c1.429,0.061,2.525,0.092,3.802,0.092   c1.063,0,3.01-0.244,4.955-0.244c2.342,0,4.837,0.395,6.812,1.459c3.466,1.885,5.322,5.201,5.322,9.062   c0,4.016-2.069,7.479-6.174,8.969c-1.975,0.732-4.135,0.914-6.69,0.914c-2.583,0-5.047-0.092-7.632-0.244   c-0.303-0.123-0.273-0.607-0.031-0.762l0.668-0.09c1.279-0.182,1.431-0.82,1.431-2.949V50.145"/>
	<path id="Dresden-schwarz" fill="#231F20" d="M117.976,39.819c0,1.035,0.82,1.674,1.704,1.674c1.033,0,1.703-0.699,1.703-1.674   c0-0.971-0.67-1.793-1.703-1.793C118.706,38.026,117.976,38.787,117.976,39.819 M103.351,32.342c0-1.187,0-1.34-0.821-1.888   l-0.275-0.181c-0.12-0.123-0.12-0.458,0.031-0.548c0.699-0.243,2.434-1.034,3.041-1.49c0.124,0,0.273,0.061,0.335,0.212   c-0.062,0.7-0.062,1.154-0.062,1.43c0,0.183,0.124,0.333,0.337,0.333c1.275-0.79,2.705-1.55,4.255-1.55   c2.525,0,3.559,1.733,3.559,3.77v5.231c0,2.189,0.062,2.495,1.156,2.645l0.668,0.092c0.213,0.152,0.153,0.669-0.061,0.761   c-0.912-0.062-1.794-0.092-2.858-0.092c-1.095,0-2.008,0.03-2.826,0.092c-0.216-0.092-0.273-0.609-0.062-0.761l0.578-0.092   c1.124-0.182,1.153-0.455,1.153-2.645V33.13c0-1.733-0.789-3.009-2.856-3.009c-1.155,0-2.159,0.486-2.586,1.064   c-0.395,0.516-0.456,0.942-0.456,1.824v4.652c0,2.189,0.062,2.462,1.157,2.645l0.547,0.092c0.212,0.152,0.152,0.669-0.062,0.761   c-0.82-0.062-1.701-0.092-2.766-0.092c-1.095,0-2.008,0.03-2.858,0.092c-0.213-0.092-0.272-0.609-0.061-0.761l0.641-0.092   c1.123-0.15,1.153-0.455,1.153-2.645V32.342L103.351,32.342z M94.471,32.371h-2.158c-0.215,0-0.215-0.091-0.215-0.152   c0.03-1.002,1.583-2.645,3.374-2.645c1.766,0,2.344,1.062,2.344,1.916c0,0.395-0.092,0.518-0.182,0.577   C97.389,32.249,96.721,32.371,94.471,32.371 M92.585,33.283h5.624c1.279,0,1.705-0.032,1.797-0.214   c0.059-0.122,0.12-0.363,0.12-0.79c0-1.826-1.703-3.619-4.317-3.619c-3.65,0-6.113,3.132-6.113,6.873   c0,1.337,0.366,2.765,1.278,3.952c0.882,1.157,2.431,2.007,4.409,2.007c1.581,0,3.771-0.761,4.773-2.829   c-0.03-0.273-0.242-0.456-0.547-0.366c-0.941,1.187-1.794,1.492-2.799,1.492c-3.253,0-5.048-2.617-5.048-5.687   C91.763,33.344,91.795,33.283,92.585,33.283 M83.954,32.066c0-0.607-0.122-0.881-0.337-1.186c-0.453-0.638-1.366-1.277-2.553-1.277   c-2.766,0-4.196,2.403-4.196,5.048c0,2.767,1.551,5.382,4.53,5.382c0.82,0,1.854-0.364,2.342-0.849   c0.182-0.186,0.214-0.641,0.214-1.127V32.066z M86.205,36.627c0,2.403,0.029,3.529,0.881,3.529c0.336,0,0.851-0.154,1.309-0.305   c0.211,0.06,0.242,0.821-0.033,0.972c-1.276,0.184-3.161,0.64-4.014,0.973c-0.183,0-0.332-0.09-0.332-0.242v-0.517   c0-0.458,0-0.823-0.062-0.943h-0.122c-1.337,0.913-2.372,1.398-3.831,1.398c-3.375,0-5.625-2.645-5.625-5.839   c0-4.257,3.223-6.993,7.356-6.993c1.034,0,1.703,0.153,2.04,0.274c0.149,0,0.182-0.182,0.182-0.426v-4.592   c0-1.794-0.032-1.976-0.943-2.523l-0.304-0.183c-0.149-0.092-0.149-0.517,0-0.608c0.759-0.244,2.189-0.699,3.284-1.277   c0.122,0,0.243,0.062,0.302,0.183c-0.027,0.913-0.088,2.433-0.088,3.771V36.627L86.205,36.627z M71.21,29.208   c-0.271-0.244-1.399-0.547-2.676-0.547c-2.31,0-4.137,1.246-4.137,3.466c0,1.672,1.249,2.738,3.013,3.741   c1.124,0.637,2.341,1.398,2.341,2.798c0,1.307-0.942,1.944-2.037,1.944c-1.735,0-2.708-1.458-3.223-3.132   c-0.153-0.182-0.548-0.151-0.7,0.03c-0.062,1.004,0.121,2.495,0.366,3.072c0.759,0.607,1.823,0.913,3.254,0.913   c2.25,0,4.378-1.154,4.378-3.467c0-2.158-1.489-3.192-3.102-4.105c-1.065-0.607-2.342-1.276-2.342-2.523   c0-1.095,0.761-1.855,1.944-1.855c1.249,0,2.162,0.882,2.679,2.22c0.151,0.182,0.605,0.121,0.729-0.091   C71.698,30.85,71.486,29.877,71.21,29.208 M55.604,32.372c2.25,0,2.919-0.123,3.163-0.306c0.09-0.06,0.183-0.183,0.183-0.577   c0-0.851-0.579-1.916-2.344-1.916c-1.792,0-3.344,1.642-3.374,2.645c0,0.062,0,0.154,0.213,0.154H55.604z M53.716,33.283   c-0.789,0-0.821,0.061-0.821,0.821c0,3.07,1.796,5.687,5.05,5.687c1.004,0,1.855-0.305,2.797-1.49   c0.304-0.092,0.517,0.09,0.547,0.366c-1.002,2.066-3.192,2.827-4.773,2.827c-1.976,0-3.527-0.851-4.41-2.007   c-0.913-1.185-1.278-2.615-1.278-3.952c0-3.741,2.464-6.873,6.112-6.873c2.617,0,4.319,1.793,4.319,3.619   c0,0.426-0.062,0.667-0.122,0.792c-0.092,0.18-0.517,0.212-1.796,0.212H53.716L53.716,33.283z M42.654,32.341v5.321   c0,2.189-0.03,2.462-1.155,2.645l-0.578,0.092c-0.211,0.152-0.151,0.669,0.062,0.761c0.791-0.062,1.704-0.092,2.799-0.092   c1.062,0,1.945,0.03,3.374,0.092c0.211-0.092,0.273-0.609,0.06-0.761l-1.094-0.092c-1.156-0.09-1.218-0.455-1.218-2.645v-4.135   c0-1.034,0.093-1.916,0.397-2.341c0.242-0.335,0.607-0.609,1.093-0.609c0.427,0,0.882,0.183,1.338,0.486   c0.213,0.123,0.365,0.213,0.667,0.213c0.489,0,1.309-0.396,1.309-1.398c0-0.73-0.609-1.216-1.367-1.216   c-1.126,0-2.283,0.942-3.346,1.826c-0.061-0.032-0.092-0.124-0.092-0.276v-1.764c0-0.12-0.09-0.181-0.244-0.212   c-0.759,0.456-2.372,1.247-3.07,1.49c-0.153,0.092-0.153,0.425-0.03,0.548l0.273,0.182C42.654,31.004,42.654,31.155,42.654,32.341    M23.014,35.806c0,1.612,0.093,2.585,0.608,3.316c0.669,0.941,1.824,1.247,3.741,1.247c5.898,0,8.544-3.863,8.544-9.519   c0-3.344-1.612-9-9.578-9c-1.796,0-2.769,0.242-3.013,0.426c-0.241,0.182-0.304,0.941-0.304,2.309L23.014,35.806L23.014,35.806z    M20.52,24.951c0-2.127-0.152-2.768-1.429-2.95l-0.668-0.09c-0.243-0.152-0.274-0.639,0.029-0.759   c2.586-0.153,5.049-0.245,7.634-0.245c2.555,0,4.713,0.182,6.69,0.913c4.105,1.49,6.173,4.957,6.173,8.97   c0,3.861-1.854,7.176-5.322,9.062c-1.976,1.063-4.471,1.46-6.81,1.46c-1.946,0-3.893-0.244-4.958-0.244   c-1.276,0-2.373,0.03-3.801,0.092c-0.181-0.092-0.242-0.579-0.06-0.761l0.699-0.092c1.762-0.244,1.824-0.606,1.824-3.801V24.951"/>
</g>
</svg>